<svg width="240" height="52" viewBox="0 0 240 52" fill="none" xmlns="http://www.w3.org/2000/svg">
<rect x="69.1645" y="0.00012207" width="8.64553" height="42.1464" fill="black" fill-opacity="0.95"/>
<rect x="93.0261" width="8.64553" height="42.1464" fill="black" fill-opacity="0.95"/>
<rect width="8.59157" height="44.1182" transform="matrix(0.87035 -0.492433 0.511454 0.859311 70.3749 4.23059)" fill="black" fill-opacity="0.95"/>
<rect x="51.8732" width="8.64553" height="42.1464" fill="black" fill-opacity="0.95"/>
<rect x="153.545" y="25.288" width="8.64553" height="25.2878" transform="rotate(180 153.545 25.288)" fill="black" fill-opacity="0.95"/>
<rect x="170.836" y="42.1462" width="8.64553" height="25.2878" transform="rotate(180 170.836 42.1462)" fill="black" fill-opacity="0.95"/>
<rect x="170.836" y="33.7173" width="8.42927" height="25.9366" transform="rotate(90 170.836 33.7173)" fill="black" fill-opacity="0.95"/>
<rect x="170.836" y="16.8582" width="8.42927" height="25.9366" transform="rotate(90 170.836 16.8582)" fill="black" fill-opacity="0.95"/>
<rect x="170.836" width="8.42927" height="25.9366" transform="rotate(90 170.836 0)" fill="black" fill-opacity="0.95"/>
<rect x="188.127" y="25.288" width="8.64553" height="25.2878" transform="rotate(180 188.127 25.288)" fill="black" fill-opacity="0.95"/>
<rect x="205.418" y="42.1462" width="8.64553" height="25.2878" transform="rotate(180 205.418 42.1462)" fill="black" fill-opacity="0.95"/>
<rect x="205.418" y="33.7173" width="8.42927" height="25.9366" transform="rotate(90 205.418 33.7173)" fill="black" fill-opacity="0.95"/>
<rect x="205.418" y="16.8582" width="8.42927" height="25.9366" transform="rotate(90 205.418 16.8582)" fill="black" fill-opacity="0.95"/>
<rect x="205.418" width="8.42927" height="25.9366" transform="rotate(90 205.418 0)" fill="black" fill-opacity="0.95"/>
<rect x="136.254" width="8.42927" height="25.9366" transform="rotate(90 136.254 0)" fill="black" fill-opacity="0.95"/>
<rect x="136.254" y="33.7173" width="8.42927" height="25.9366" transform="rotate(90 136.254 33.7173)" fill="black" fill-opacity="0.95"/>
<rect x="136.254" y="16.8582" width="8.42927" height="25.9366" transform="rotate(90 136.254 16.8582)" fill="black" fill-opacity="0.95"/>
<rect x="110.317" width="8.64553" height="42.1464" fill="black" fill-opacity="0.95"/>
<rect x="240" width="8.42927" height="25.9366" transform="rotate(90 240 0)" fill="black" fill-opacity="0.95"/>
<rect x="240" y="33.7173" width="8.42927" height="25.9366" transform="rotate(90 240 33.7173)" fill="black" fill-opacity="0.95"/>
<rect x="240" y="16.8582" width="8.42927" height="25.9366" transform="rotate(90 240 16.8582)" fill="black" fill-opacity="0.95"/>
<rect x="214.063" width="8.64553" height="42.1464" fill="black" fill-opacity="0.95"/>
<path d="M16.8879 0H25.7031V40.6603L16.8879 52V0Z" fill="black" fill-opacity="0.95"/>
<path d="M6.82067 17.6987H43.3333L36.3769 26.5482H0L6.82067 17.6987Z" fill="black" fill-opacity="0.95"/>
<rect x="16.8879" width="26.4456" height="8.84945" fill="black" fill-opacity="0.95"/>
</svg>
